<svg width="360" height="333" viewBox="0 0 360 333" fill="none" xmlns="http://www.w3.org/2000/svg">
<g clip-path="url(#clip0_217_6)">
<path fill-rule="evenodd" clip-rule="evenodd" d="M680.095 145.294L129.405 -233L-48.6949 4.10548L-9.59583 30.9644L-71 124.208L-50.543 139.924C-30.086 155.64 10.8279 187.072 66.2141 196.528C88.8721 200.396 113.952 200.587 139.032 200.777C175.259 201.053 211.486 201.328 240.413 212.687C277.848 227.387 303.06 260.65 328.271 293.913C336.028 304.148 343.785 314.383 351.899 324.077C386.38 365.276 427.294 396.708 447.751 412.425L468.208 428.141L499.472 380.667L501.995 382.4L680.095 145.294Z" fill="#F8C589"/>
</g>
<defs>
<clipPath id="clip0_217_6">
<rect width="360" height="333" fill="white"/>
</clipPath>
</defs>
</svg>
